<?xml version="1.0" encoding="UTF-8" standalone="no"?>
<svg
   xmlns:dc="http://purl.org/dc/elements/1.1/"
   xmlns:cc="http://creativecommons.org/ns#"
   xmlns:rdf="http://www.w3.org/1999/02/22-rdf-syntax-ns#"
   xmlns:svg="http://www.w3.org/2000/svg"
   xmlns="http://www.w3.org/2000/svg"
   id="svg8"
   version="1.1"
   viewBox="0 0 50 50"
   height="50mm"
   width="50mm">
  <defs
     id="defs2" />
  <metadata
     id="metadata5">
    <rdf:RDF>
      <cc:Work
         rdf:about="">
        <dc:format>image/svg+xml</dc:format>
        <dc:type
           rdf:resource="http://purl.org/dc/dcmitype/StillImage" />
        <dc:title></dc:title>
      </cc:Work>
    </rdf:RDF>
  </metadata>
  <g
     style="display:none"
     transform="translate(0,-247)"
     id="layer1">
    <path
       id="path1082"
       d="m 23.469974,269.62024 -3.881696,2.25227 v 10.18795 l 3.881696,2.25227 v -14.69249"
       style="opacity:1;fill:#ffffff;fill-opacity:1;stroke:#000000;stroke-width:0.10000001;stroke-linecap:square;stroke-linejoin:miter;stroke-miterlimit:4;stroke-dasharray:none;stroke-dashoffset:0;stroke-opacity:1;paint-order:fill markers stroke" />
    <path
       transform="scale(1,-1)"
       d="m 25.000001,-295.09401 19.999998,11.54701 0,23.09401 -20,11.547 -19.9999981,-11.54701 6e-7,-23.09401 z"
       id="path22"
       style="opacity:1;fill:#000000;fill-opacity:1;stroke:#000000;stroke-width:0;stroke-linecap:square;stroke-linejoin:miter;stroke-miterlimit:4;stroke-dasharray:none;stroke-dashoffset:0;stroke-opacity:1;paint-order:fill markers stroke" />
    <path
       style="opacity:1;fill:#ffffff;fill-opacity:1;stroke:#000000;stroke-width:0;stroke-linecap:square;stroke-linejoin:miter;stroke-miterlimit:4;stroke-dasharray:none;stroke-dashoffset:0;stroke-opacity:1;paint-order:fill markers stroke"
       id="path891"
       d="m 25.000001,-294.80534 19.75,11.40267 -10e-7,22.80534 -19.750001,11.40267 -19.7499996,-11.40267 6e-7,-22.80534 z"
       transform="scale(1,-1)" />
    <path
       id="rect895"
       d="M 14.931699,259.17335 10.05,261.9927 v 21.58226 l 4.881699,2.81936 v -27.22097"
       style="opacity:1;fill:#ffffff;fill-opacity:1;stroke:#000000;stroke-width:0.1;stroke-linecap:square;stroke-linejoin:miter;stroke-miterlimit:4;stroke-dasharray:none;stroke-dashoffset:0;stroke-opacity:1;paint-order:fill markers stroke" />
    <path
       style="opacity:1;fill:#ffffff;fill-opacity:1;stroke:#000000;stroke-width:0.1;stroke-linecap:square;stroke-linejoin:miter;stroke-miterlimit:4;stroke-dasharray:none;stroke-dashoffset:0;stroke-opacity:1;paint-order:fill markers stroke"
       d="m 24.999999,251.79274 4.881699,2.81919 v 9.8048 l -4.881699,2.81919 v -15.44318"
       id="path925" />
    <path
       id="path988"
       d="M 24.999999,251.79274 7.4998005,261.89616 v 0.52968 L 24.999999,252.32242 Z"
       style="opacity:1;fill:#ffffff;fill-opacity:1;stroke:#000000;stroke-width:0;stroke-linecap:square;stroke-linejoin:miter;stroke-miterlimit:4;stroke-dasharray:none;stroke-dashoffset:0;stroke-opacity:1;paint-order:fill markers stroke" />
    <path
       id="rect1003"
       d="m 28.914778,247.59418 4.249985,-1e-5 7e-6,2.11696 -4.25,-1e-5 z"
       style="opacity:1;fill:none;fill-opacity:1;stroke:#000000;stroke-width:0.09999999;stroke-linecap:square;stroke-linejoin:miter;stroke-miterlimit:4;stroke-dasharray:none;stroke-dashoffset:0;stroke-opacity:1;paint-order:fill markers stroke" />
    <path
       style="opacity:1;fill:none;fill-opacity:1;stroke:#000000;stroke-width:0.09999999;stroke-linecap:square;stroke-linejoin:miter;stroke-miterlimit:4;stroke-dasharray:none;stroke-dashoffset:0;stroke-opacity:1;paint-order:fill markers stroke"
       d="m 9.2299902,251.58926 4.8999838,-1e-5 2e-6,0.89999 h -4.9 z"
       id="path1015" />
    <path
       id="path1026"
       d="m 25.000001,-292.20726 17.499998,10.10363 v 20.20726 l -17.5,10.10363 -17.4999982,-10.10363 5e-7,-20.20726 z"
       style="opacity:1;fill:#ffffff;fill-opacity:1;stroke:#000000;stroke-width:0;stroke-linecap:square;stroke-linejoin:miter;stroke-miterlimit:4;stroke-dasharray:none;stroke-dashoffset:0;stroke-opacity:1;paint-order:fill markers stroke"
       transform="scale(1,-1)" />
    <path
       style="opacity:1;fill:#ffffff;fill-opacity:1;stroke:#000000;stroke-width:0;stroke-linecap:square;stroke-linejoin:miter;stroke-miterlimit:4;stroke-dasharray:none;stroke-dashoffset:0;stroke-opacity:1;paint-order:fill markers stroke"
       d="m 24.999999,266.70624 -10.0683,5.81276 v 0.52967 l 10.0683,-5.81275 z"
       id="path1038" />
    <path
       style="opacity:1;fill:#ffffff;fill-opacity:1;stroke:#000000;stroke-width:0.10000001;stroke-linecap:square;stroke-linejoin:miter;stroke-miterlimit:4;stroke-dasharray:none;stroke-dashoffset:0;stroke-opacity:1;paint-order:fill markers stroke"
       d="m 22.819984,268.48327 -3.881696,2.25227 v 10.18795 l 3.881696,2.25227 v -14.69249"
       id="path1049" />
    <path
       style="opacity:1;fill:#ffffff;fill-opacity:1;stroke:#000000;stroke-width:0.1;stroke-linecap:square;stroke-linejoin:miter;stroke-miterlimit:4;stroke-dasharray:none;stroke-dashoffset:0;stroke-opacity:1;paint-order:fill markers stroke"
       d="M 24.999999,268.27515 20.1183,271.0945 v 18.2934 l 4.881699,2.81936 v -23.93211"
       id="path1060" />
    <path
       id="path1071"
       d="m 8.3478924,289.67238 -4.23522,-2.44519 0.324985,-0.5629 4.235228,2.44521 z"
       style="opacity:1;fill:none;fill-opacity:1;stroke:#000000;stroke-width:0.09999999;stroke-linecap:square;stroke-linejoin:miter;stroke-miterlimit:4;stroke-dasharray:none;stroke-dashoffset:0;stroke-opacity:1;paint-order:fill markers stroke" />
    <path
       id="path1093"
       d="m 37.6183,259.07718 4.881699,2.81919 v 20.20726 l -4.881699,2.81919 v -25.84564"
       style="opacity:1;fill:#ffffff;fill-opacity:1;stroke:#000000;stroke-width:0.1;stroke-linecap:square;stroke-linejoin:miter;stroke-miterlimit:4;stroke-dasharray:none;stroke-dashoffset:0;stroke-opacity:1;paint-order:fill markers stroke" />
    <path
       id="path1104"
       d="M 32.618302,276.40986 37.6183,279.29083 24.993802,292.20368 20.1183,289.3879 32.618302,276.40986"
       style="opacity:1;fill:#ffffff;fill-opacity:1;stroke:#000000;stroke-width:0.09999999;stroke-linecap:square;stroke-linejoin:miter;stroke-miterlimit:4;stroke-dasharray:none;stroke-dashoffset:0;stroke-opacity:1;paint-order:fill markers stroke" />
    <path
       style="opacity:1;fill:#ffffff;fill-opacity:1;stroke:#000000;stroke-width:0.1;stroke-linecap:square;stroke-linejoin:miter;stroke-miterlimit:4;stroke-dasharray:none;stroke-dashoffset:0;stroke-opacity:1;paint-order:fill markers stroke"
       d="m 37.6183,259.07718 4.881699,2.81919 v 20.20726 l -4.881699,-2.8128 v -20.21365"
       id="path1115" />
  </g>
  <g
     style="display:inline"
     id="layer2">
    <path
       style="display:inline;opacity:1;fill:#000000;fill-opacity:1;stroke:#000000;stroke-width:0;stroke-linecap:square;stroke-linejoin:miter;stroke-miterlimit:4;stroke-dasharray:none;stroke-dashoffset:0;stroke-opacity:1;paint-order:fill markers stroke"
       id="path1185"
       d="m 25.000001,-295.09401 19.999998,11.54701 0,23.09401 -20,11.547 -19.9999981,-11.54701 6e-7,-23.09401 z"
       transform="matrix(1,0,0,-1,0,-247)" />
    <path
       transform="scale(1,-1)"
       d="M 25.000001,-47.516661 44.5,-36.25833 44.5,-13.741669 24.999999,-2.4833393 5.4999995,-13.74167 l 6e-7,-22.516661 z"
       id="path1187"
       style="display:inline;opacity:1;fill:#ffffff;fill-opacity:1;stroke:none;stroke-width:0;stroke-linecap:square;stroke-linejoin:miter;stroke-miterlimit:4;stroke-dasharray:none;stroke-dashoffset:0;stroke-opacity:1;paint-order:fill markers stroke" />
    <path
       id="path1205"
       transform="scale(0.26458333)"
       d="M 94.488281 80.410156 L 76.037109 91.066406 L 76.037109 160.20703 L 94.464844 170.84766 L 94.488281 170.86133 L 94.488281 170.82422 L 142.17969 122.04492 L 123.28125 111.15625 L 94.488281 141.05078 L 94.488281 80.410156 z "
       style="display:inline;opacity:1;fill:#000000;fill-opacity:1;stroke:#000000;stroke-width:0;stroke-linecap:square;stroke-linejoin:miter;stroke-miterlimit:4;stroke-dasharray:none;stroke-dashoffset:0;stroke-opacity:1;paint-order:fill markers stroke" />
    <path
       id="path1213"
       d="m 37.6183,259.07718 4.881699,2.81919 v 20.20726 l -4.881699,-2.8128 v -20.21365"
       style="display:inline;opacity:1;fill:#000000;fill-opacity:1;stroke:#000000;stroke-width:0;stroke-linecap:square;stroke-linejoin:miter;stroke-miterlimit:4;stroke-dasharray:none;stroke-dashoffset:0;stroke-opacity:1;paint-order:fill markers stroke"
       transform="translate(0,-247)" />
    <path
       style="display:inline;opacity:1;fill:#ffffff;fill-opacity:1;stroke:#000000;stroke-width:0;stroke-linecap:square;stroke-linejoin:miter;stroke-miterlimit:4;stroke-dasharray:none;stroke-dashoffset:0;stroke-opacity:1;paint-order:fill markers stroke"
       d="m 19.588278,270.37152 v 11.68894 l 3.881696,2.25227 v -16.19348"
       id="path1183"
       transform="translate(0,-247)" />
    <path
       id="path1189"
       transform="scale(0.26458333)"
       d="M 94.488281 18.115234 L 28.345703 56.300781 L 28.345703 58.302734 L 94.488281 20.117188 L 94.488281 74.480469 L 56.435547 96.449219 L 56.435547 46.009766 L 37.984375 56.666016 L 37.984375 138.23633 L 56.435547 148.89258 L 56.435547 98.451172 L 71.578125 89.708984 L 71.578125 128.21484 L 86.248047 136.72656 L 86.248047 81.240234 L 94.488281 76.482422 L 112.93945 65.826172 L 112.93945 28.769531 L 94.488281 18.115234 z "
       style="display:inline;opacity:1;fill:#000000;fill-opacity:1;stroke:#000000;stroke-width:0;stroke-linecap:square;stroke-linejoin:miter;stroke-miterlimit:4;stroke-dasharray:none;stroke-dashoffset:0;stroke-opacity:1;paint-order:fill markers stroke" />
  </g>
</svg>
